%TF.GenerationSoftware,KiCad,Pcbnew,7.0.1-3b83917a11~172~ubuntu22.04.1*%
%TF.CreationDate,2023-04-12T15:56:53-05:00*%
%TF.ProjectId,load-resistors,6c6f6164-2d72-4657-9369-73746f72732e,rev?*%
%TF.SameCoordinates,Original*%
%TF.FileFunction,Other,Comment*%
%FSLAX46Y46*%
G04 Gerber Fmt 4.6, Leading zero omitted, Abs format (unit mm)*
G04 Created by KiCad (PCBNEW 7.0.1-3b83917a11~172~ubuntu22.04.1) date 2023-04-12 15:56:53*
%MOMM*%
%LPD*%
G01*
G04 APERTURE LIST*
%ADD10C,0.002000*%
%ADD11C,0.150000*%
G04 APERTURE END LIST*
D10*
%TO.C,R2*%
X200706657Y-119485833D02*
X200712705Y-119491881D01*
X200712705Y-119491881D02*
X200718752Y-119510023D01*
X200718752Y-119510023D02*
X200718752Y-119522119D01*
X200718752Y-119522119D02*
X200712705Y-119540262D01*
X200712705Y-119540262D02*
X200700609Y-119552357D01*
X200700609Y-119552357D02*
X200688514Y-119558404D01*
X200688514Y-119558404D02*
X200664324Y-119564452D01*
X200664324Y-119564452D02*
X200646181Y-119564452D01*
X200646181Y-119564452D02*
X200621990Y-119558404D01*
X200621990Y-119558404D02*
X200609895Y-119552357D01*
X200609895Y-119552357D02*
X200597800Y-119540262D01*
X200597800Y-119540262D02*
X200591752Y-119522119D01*
X200591752Y-119522119D02*
X200591752Y-119510023D01*
X200591752Y-119510023D02*
X200597800Y-119491881D01*
X200597800Y-119491881D02*
X200603847Y-119485833D01*
X200718752Y-119413262D02*
X200712705Y-119425357D01*
X200712705Y-119425357D02*
X200706657Y-119431404D01*
X200706657Y-119431404D02*
X200694562Y-119437452D01*
X200694562Y-119437452D02*
X200658276Y-119437452D01*
X200658276Y-119437452D02*
X200646181Y-119431404D01*
X200646181Y-119431404D02*
X200640133Y-119425357D01*
X200640133Y-119425357D02*
X200634085Y-119413262D01*
X200634085Y-119413262D02*
X200634085Y-119395119D01*
X200634085Y-119395119D02*
X200640133Y-119383023D01*
X200640133Y-119383023D02*
X200646181Y-119376976D01*
X200646181Y-119376976D02*
X200658276Y-119370928D01*
X200658276Y-119370928D02*
X200694562Y-119370928D01*
X200694562Y-119370928D02*
X200706657Y-119376976D01*
X200706657Y-119376976D02*
X200712705Y-119383023D01*
X200712705Y-119383023D02*
X200718752Y-119395119D01*
X200718752Y-119395119D02*
X200718752Y-119413262D01*
X200634085Y-119316499D02*
X200761085Y-119316499D01*
X200640133Y-119316499D02*
X200634085Y-119304404D01*
X200634085Y-119304404D02*
X200634085Y-119280214D01*
X200634085Y-119280214D02*
X200640133Y-119268118D01*
X200640133Y-119268118D02*
X200646181Y-119262071D01*
X200646181Y-119262071D02*
X200658276Y-119256023D01*
X200658276Y-119256023D02*
X200694562Y-119256023D01*
X200694562Y-119256023D02*
X200706657Y-119262071D01*
X200706657Y-119262071D02*
X200712705Y-119268118D01*
X200712705Y-119268118D02*
X200718752Y-119280214D01*
X200718752Y-119280214D02*
X200718752Y-119304404D01*
X200718752Y-119304404D02*
X200712705Y-119316499D01*
X200634085Y-119213690D02*
X200718752Y-119183452D01*
X200634085Y-119153213D02*
X200718752Y-119183452D01*
X200718752Y-119183452D02*
X200748990Y-119195547D01*
X200748990Y-119195547D02*
X200755038Y-119201594D01*
X200755038Y-119201594D02*
X200761085Y-119213690D01*
X200718752Y-119104832D02*
X200634085Y-119104832D01*
X200658276Y-119104832D02*
X200646181Y-119098785D01*
X200646181Y-119098785D02*
X200640133Y-119092737D01*
X200640133Y-119092737D02*
X200634085Y-119080642D01*
X200634085Y-119080642D02*
X200634085Y-119068547D01*
X200718752Y-119026213D02*
X200634085Y-119026213D01*
X200591752Y-119026213D02*
X200597800Y-119032261D01*
X200597800Y-119032261D02*
X200603847Y-119026213D01*
X200603847Y-119026213D02*
X200597800Y-119020166D01*
X200597800Y-119020166D02*
X200591752Y-119026213D01*
X200591752Y-119026213D02*
X200603847Y-119026213D01*
X200634085Y-118911309D02*
X200736895Y-118911309D01*
X200736895Y-118911309D02*
X200748990Y-118917356D01*
X200748990Y-118917356D02*
X200755038Y-118923404D01*
X200755038Y-118923404D02*
X200761085Y-118935499D01*
X200761085Y-118935499D02*
X200761085Y-118953642D01*
X200761085Y-118953642D02*
X200755038Y-118965737D01*
X200712705Y-118911309D02*
X200718752Y-118923404D01*
X200718752Y-118923404D02*
X200718752Y-118947595D01*
X200718752Y-118947595D02*
X200712705Y-118959690D01*
X200712705Y-118959690D02*
X200706657Y-118965737D01*
X200706657Y-118965737D02*
X200694562Y-118971785D01*
X200694562Y-118971785D02*
X200658276Y-118971785D01*
X200658276Y-118971785D02*
X200646181Y-118965737D01*
X200646181Y-118965737D02*
X200640133Y-118959690D01*
X200640133Y-118959690D02*
X200634085Y-118947595D01*
X200634085Y-118947595D02*
X200634085Y-118923404D01*
X200634085Y-118923404D02*
X200640133Y-118911309D01*
X200718752Y-118850832D02*
X200591752Y-118850832D01*
X200718752Y-118796404D02*
X200652228Y-118796404D01*
X200652228Y-118796404D02*
X200640133Y-118802451D01*
X200640133Y-118802451D02*
X200634085Y-118814547D01*
X200634085Y-118814547D02*
X200634085Y-118832690D01*
X200634085Y-118832690D02*
X200640133Y-118844785D01*
X200640133Y-118844785D02*
X200646181Y-118850832D01*
X200634085Y-118754070D02*
X200634085Y-118705689D01*
X200591752Y-118735927D02*
X200700609Y-118735927D01*
X200700609Y-118735927D02*
X200712705Y-118729880D01*
X200712705Y-118729880D02*
X200718752Y-118717785D01*
X200718752Y-118717785D02*
X200718752Y-118705689D01*
X200603847Y-118572642D02*
X200597800Y-118566594D01*
X200597800Y-118566594D02*
X200591752Y-118554499D01*
X200591752Y-118554499D02*
X200591752Y-118524261D01*
X200591752Y-118524261D02*
X200597800Y-118512166D01*
X200597800Y-118512166D02*
X200603847Y-118506118D01*
X200603847Y-118506118D02*
X200615943Y-118500071D01*
X200615943Y-118500071D02*
X200628038Y-118500071D01*
X200628038Y-118500071D02*
X200646181Y-118506118D01*
X200646181Y-118506118D02*
X200718752Y-118578690D01*
X200718752Y-118578690D02*
X200718752Y-118500071D01*
X200591752Y-118421452D02*
X200591752Y-118409357D01*
X200591752Y-118409357D02*
X200597800Y-118397261D01*
X200597800Y-118397261D02*
X200603847Y-118391214D01*
X200603847Y-118391214D02*
X200615943Y-118385166D01*
X200615943Y-118385166D02*
X200640133Y-118379119D01*
X200640133Y-118379119D02*
X200670371Y-118379119D01*
X200670371Y-118379119D02*
X200694562Y-118385166D01*
X200694562Y-118385166D02*
X200706657Y-118391214D01*
X200706657Y-118391214D02*
X200712705Y-118397261D01*
X200712705Y-118397261D02*
X200718752Y-118409357D01*
X200718752Y-118409357D02*
X200718752Y-118421452D01*
X200718752Y-118421452D02*
X200712705Y-118433547D01*
X200712705Y-118433547D02*
X200706657Y-118439595D01*
X200706657Y-118439595D02*
X200694562Y-118445642D01*
X200694562Y-118445642D02*
X200670371Y-118451690D01*
X200670371Y-118451690D02*
X200640133Y-118451690D01*
X200640133Y-118451690D02*
X200615943Y-118445642D01*
X200615943Y-118445642D02*
X200603847Y-118439595D01*
X200603847Y-118439595D02*
X200597800Y-118433547D01*
X200597800Y-118433547D02*
X200591752Y-118421452D01*
X200718752Y-118258167D02*
X200718752Y-118330738D01*
X200718752Y-118294452D02*
X200591752Y-118294452D01*
X200591752Y-118294452D02*
X200609895Y-118306548D01*
X200609895Y-118306548D02*
X200621990Y-118318643D01*
X200621990Y-118318643D02*
X200628038Y-118330738D01*
X200591752Y-118149310D02*
X200591752Y-118173500D01*
X200591752Y-118173500D02*
X200597800Y-118185596D01*
X200597800Y-118185596D02*
X200603847Y-118191643D01*
X200603847Y-118191643D02*
X200621990Y-118203738D01*
X200621990Y-118203738D02*
X200646181Y-118209786D01*
X200646181Y-118209786D02*
X200694562Y-118209786D01*
X200694562Y-118209786D02*
X200706657Y-118203738D01*
X200706657Y-118203738D02*
X200712705Y-118197691D01*
X200712705Y-118197691D02*
X200718752Y-118185596D01*
X200718752Y-118185596D02*
X200718752Y-118161405D01*
X200718752Y-118161405D02*
X200712705Y-118149310D01*
X200712705Y-118149310D02*
X200706657Y-118143262D01*
X200706657Y-118143262D02*
X200694562Y-118137215D01*
X200694562Y-118137215D02*
X200664324Y-118137215D01*
X200664324Y-118137215D02*
X200652228Y-118143262D01*
X200652228Y-118143262D02*
X200646181Y-118149310D01*
X200646181Y-118149310D02*
X200640133Y-118161405D01*
X200640133Y-118161405D02*
X200640133Y-118185596D01*
X200640133Y-118185596D02*
X200646181Y-118197691D01*
X200646181Y-118197691D02*
X200652228Y-118203738D01*
X200652228Y-118203738D02*
X200664324Y-118209786D01*
X200682466Y-117992072D02*
X200682466Y-117931596D01*
X200718752Y-118004167D02*
X200591752Y-117961834D01*
X200591752Y-117961834D02*
X200718752Y-117919501D01*
X200712705Y-117822739D02*
X200718752Y-117834834D01*
X200718752Y-117834834D02*
X200718752Y-117859025D01*
X200718752Y-117859025D02*
X200712705Y-117871120D01*
X200712705Y-117871120D02*
X200706657Y-117877167D01*
X200706657Y-117877167D02*
X200694562Y-117883215D01*
X200694562Y-117883215D02*
X200658276Y-117883215D01*
X200658276Y-117883215D02*
X200646181Y-117877167D01*
X200646181Y-117877167D02*
X200640133Y-117871120D01*
X200640133Y-117871120D02*
X200634085Y-117859025D01*
X200634085Y-117859025D02*
X200634085Y-117834834D01*
X200634085Y-117834834D02*
X200640133Y-117822739D01*
X200712705Y-117713882D02*
X200718752Y-117725977D01*
X200718752Y-117725977D02*
X200718752Y-117750168D01*
X200718752Y-117750168D02*
X200712705Y-117762263D01*
X200712705Y-117762263D02*
X200706657Y-117768310D01*
X200706657Y-117768310D02*
X200694562Y-117774358D01*
X200694562Y-117774358D02*
X200658276Y-117774358D01*
X200658276Y-117774358D02*
X200646181Y-117768310D01*
X200646181Y-117768310D02*
X200640133Y-117762263D01*
X200640133Y-117762263D02*
X200634085Y-117750168D01*
X200634085Y-117750168D02*
X200634085Y-117725977D01*
X200634085Y-117725977D02*
X200640133Y-117713882D01*
X200712705Y-117611072D02*
X200718752Y-117623168D01*
X200718752Y-117623168D02*
X200718752Y-117647358D01*
X200718752Y-117647358D02*
X200712705Y-117659453D01*
X200712705Y-117659453D02*
X200700609Y-117665501D01*
X200700609Y-117665501D02*
X200652228Y-117665501D01*
X200652228Y-117665501D02*
X200640133Y-117659453D01*
X200640133Y-117659453D02*
X200634085Y-117647358D01*
X200634085Y-117647358D02*
X200634085Y-117623168D01*
X200634085Y-117623168D02*
X200640133Y-117611072D01*
X200640133Y-117611072D02*
X200652228Y-117605025D01*
X200652228Y-117605025D02*
X200664324Y-117605025D01*
X200664324Y-117605025D02*
X200676419Y-117665501D01*
X200718752Y-117532454D02*
X200712705Y-117544549D01*
X200712705Y-117544549D02*
X200700609Y-117550596D01*
X200700609Y-117550596D02*
X200591752Y-117550596D01*
X200712705Y-117435691D02*
X200718752Y-117447787D01*
X200718752Y-117447787D02*
X200718752Y-117471977D01*
X200718752Y-117471977D02*
X200712705Y-117484072D01*
X200712705Y-117484072D02*
X200700609Y-117490120D01*
X200700609Y-117490120D02*
X200652228Y-117490120D01*
X200652228Y-117490120D02*
X200640133Y-117484072D01*
X200640133Y-117484072D02*
X200634085Y-117471977D01*
X200634085Y-117471977D02*
X200634085Y-117447787D01*
X200634085Y-117447787D02*
X200640133Y-117435691D01*
X200640133Y-117435691D02*
X200652228Y-117429644D01*
X200652228Y-117429644D02*
X200664324Y-117429644D01*
X200664324Y-117429644D02*
X200676419Y-117490120D01*
X200718752Y-117375215D02*
X200634085Y-117375215D01*
X200658276Y-117375215D02*
X200646181Y-117369168D01*
X200646181Y-117369168D02*
X200640133Y-117363120D01*
X200640133Y-117363120D02*
X200634085Y-117351025D01*
X200634085Y-117351025D02*
X200634085Y-117338930D01*
X200718752Y-117242168D02*
X200652228Y-117242168D01*
X200652228Y-117242168D02*
X200640133Y-117248215D01*
X200640133Y-117248215D02*
X200634085Y-117260311D01*
X200634085Y-117260311D02*
X200634085Y-117284501D01*
X200634085Y-117284501D02*
X200640133Y-117296596D01*
X200712705Y-117242168D02*
X200718752Y-117254263D01*
X200718752Y-117254263D02*
X200718752Y-117284501D01*
X200718752Y-117284501D02*
X200712705Y-117296596D01*
X200712705Y-117296596D02*
X200700609Y-117302644D01*
X200700609Y-117302644D02*
X200688514Y-117302644D01*
X200688514Y-117302644D02*
X200676419Y-117296596D01*
X200676419Y-117296596D02*
X200670371Y-117284501D01*
X200670371Y-117284501D02*
X200670371Y-117254263D01*
X200670371Y-117254263D02*
X200664324Y-117242168D01*
X200634085Y-117199834D02*
X200634085Y-117151453D01*
X200591752Y-117181691D02*
X200700609Y-117181691D01*
X200700609Y-117181691D02*
X200712705Y-117175644D01*
X200712705Y-117175644D02*
X200718752Y-117163549D01*
X200718752Y-117163549D02*
X200718752Y-117151453D01*
X200712705Y-117060739D02*
X200718752Y-117072835D01*
X200718752Y-117072835D02*
X200718752Y-117097025D01*
X200718752Y-117097025D02*
X200712705Y-117109120D01*
X200712705Y-117109120D02*
X200700609Y-117115168D01*
X200700609Y-117115168D02*
X200652228Y-117115168D01*
X200652228Y-117115168D02*
X200640133Y-117109120D01*
X200640133Y-117109120D02*
X200634085Y-117097025D01*
X200634085Y-117097025D02*
X200634085Y-117072835D01*
X200634085Y-117072835D02*
X200640133Y-117060739D01*
X200640133Y-117060739D02*
X200652228Y-117054692D01*
X200652228Y-117054692D02*
X200664324Y-117054692D01*
X200664324Y-117054692D02*
X200676419Y-117115168D01*
X200718752Y-116945835D02*
X200591752Y-116945835D01*
X200712705Y-116945835D02*
X200718752Y-116957930D01*
X200718752Y-116957930D02*
X200718752Y-116982121D01*
X200718752Y-116982121D02*
X200712705Y-116994216D01*
X200712705Y-116994216D02*
X200706657Y-117000263D01*
X200706657Y-117000263D02*
X200694562Y-117006311D01*
X200694562Y-117006311D02*
X200658276Y-117006311D01*
X200658276Y-117006311D02*
X200646181Y-117000263D01*
X200646181Y-117000263D02*
X200640133Y-116994216D01*
X200640133Y-116994216D02*
X200634085Y-116982121D01*
X200634085Y-116982121D02*
X200634085Y-116957930D01*
X200634085Y-116957930D02*
X200640133Y-116945835D01*
X200718752Y-116788596D02*
X200591752Y-116788596D01*
X200591752Y-116788596D02*
X200591752Y-116758358D01*
X200591752Y-116758358D02*
X200597800Y-116740215D01*
X200597800Y-116740215D02*
X200609895Y-116728120D01*
X200609895Y-116728120D02*
X200621990Y-116722073D01*
X200621990Y-116722073D02*
X200646181Y-116716025D01*
X200646181Y-116716025D02*
X200664324Y-116716025D01*
X200664324Y-116716025D02*
X200688514Y-116722073D01*
X200688514Y-116722073D02*
X200700609Y-116728120D01*
X200700609Y-116728120D02*
X200712705Y-116740215D01*
X200712705Y-116740215D02*
X200718752Y-116758358D01*
X200718752Y-116758358D02*
X200718752Y-116788596D01*
X200712705Y-116613215D02*
X200718752Y-116625311D01*
X200718752Y-116625311D02*
X200718752Y-116649501D01*
X200718752Y-116649501D02*
X200712705Y-116661596D01*
X200712705Y-116661596D02*
X200700609Y-116667644D01*
X200700609Y-116667644D02*
X200652228Y-116667644D01*
X200652228Y-116667644D02*
X200640133Y-116661596D01*
X200640133Y-116661596D02*
X200634085Y-116649501D01*
X200634085Y-116649501D02*
X200634085Y-116625311D01*
X200634085Y-116625311D02*
X200640133Y-116613215D01*
X200640133Y-116613215D02*
X200652228Y-116607168D01*
X200652228Y-116607168D02*
X200664324Y-116607168D01*
X200664324Y-116607168D02*
X200676419Y-116667644D01*
X200712705Y-116558787D02*
X200718752Y-116546692D01*
X200718752Y-116546692D02*
X200718752Y-116522501D01*
X200718752Y-116522501D02*
X200712705Y-116510406D01*
X200712705Y-116510406D02*
X200700609Y-116504358D01*
X200700609Y-116504358D02*
X200694562Y-116504358D01*
X200694562Y-116504358D02*
X200682466Y-116510406D01*
X200682466Y-116510406D02*
X200676419Y-116522501D01*
X200676419Y-116522501D02*
X200676419Y-116540644D01*
X200676419Y-116540644D02*
X200670371Y-116552739D01*
X200670371Y-116552739D02*
X200658276Y-116558787D01*
X200658276Y-116558787D02*
X200652228Y-116558787D01*
X200652228Y-116558787D02*
X200640133Y-116552739D01*
X200640133Y-116552739D02*
X200634085Y-116540644D01*
X200634085Y-116540644D02*
X200634085Y-116522501D01*
X200634085Y-116522501D02*
X200640133Y-116510406D01*
X200718752Y-116449929D02*
X200634085Y-116449929D01*
X200591752Y-116449929D02*
X200597800Y-116455977D01*
X200597800Y-116455977D02*
X200603847Y-116449929D01*
X200603847Y-116449929D02*
X200597800Y-116443882D01*
X200597800Y-116443882D02*
X200591752Y-116449929D01*
X200591752Y-116449929D02*
X200603847Y-116449929D01*
X200634085Y-116335025D02*
X200736895Y-116335025D01*
X200736895Y-116335025D02*
X200748990Y-116341072D01*
X200748990Y-116341072D02*
X200755038Y-116347120D01*
X200755038Y-116347120D02*
X200761085Y-116359215D01*
X200761085Y-116359215D02*
X200761085Y-116377358D01*
X200761085Y-116377358D02*
X200755038Y-116389453D01*
X200712705Y-116335025D02*
X200718752Y-116347120D01*
X200718752Y-116347120D02*
X200718752Y-116371311D01*
X200718752Y-116371311D02*
X200712705Y-116383406D01*
X200712705Y-116383406D02*
X200706657Y-116389453D01*
X200706657Y-116389453D02*
X200694562Y-116395501D01*
X200694562Y-116395501D02*
X200658276Y-116395501D01*
X200658276Y-116395501D02*
X200646181Y-116389453D01*
X200646181Y-116389453D02*
X200640133Y-116383406D01*
X200640133Y-116383406D02*
X200634085Y-116371311D01*
X200634085Y-116371311D02*
X200634085Y-116347120D01*
X200634085Y-116347120D02*
X200640133Y-116335025D01*
X200634085Y-116274548D02*
X200718752Y-116274548D01*
X200646181Y-116274548D02*
X200640133Y-116268501D01*
X200640133Y-116268501D02*
X200634085Y-116256406D01*
X200634085Y-116256406D02*
X200634085Y-116238263D01*
X200634085Y-116238263D02*
X200640133Y-116226167D01*
X200640133Y-116226167D02*
X200652228Y-116220120D01*
X200652228Y-116220120D02*
X200718752Y-116220120D01*
X200712705Y-116165691D02*
X200718752Y-116153596D01*
X200718752Y-116153596D02*
X200718752Y-116129405D01*
X200718752Y-116129405D02*
X200712705Y-116117310D01*
X200712705Y-116117310D02*
X200700609Y-116111262D01*
X200700609Y-116111262D02*
X200694562Y-116111262D01*
X200694562Y-116111262D02*
X200682466Y-116117310D01*
X200682466Y-116117310D02*
X200676419Y-116129405D01*
X200676419Y-116129405D02*
X200676419Y-116147548D01*
X200676419Y-116147548D02*
X200670371Y-116159643D01*
X200670371Y-116159643D02*
X200658276Y-116165691D01*
X200658276Y-116165691D02*
X200652228Y-116165691D01*
X200652228Y-116165691D02*
X200640133Y-116159643D01*
X200640133Y-116159643D02*
X200634085Y-116147548D01*
X200634085Y-116147548D02*
X200634085Y-116129405D01*
X200634085Y-116129405D02*
X200640133Y-116117310D01*
X200706657Y-116056833D02*
X200712705Y-116050786D01*
X200712705Y-116050786D02*
X200718752Y-116056833D01*
X200718752Y-116056833D02*
X200712705Y-116062881D01*
X200712705Y-116062881D02*
X200706657Y-116056833D01*
X200706657Y-116056833D02*
X200718752Y-116056833D01*
X200682466Y-115905643D02*
X200682466Y-115845167D01*
X200718752Y-115917738D02*
X200591752Y-115875405D01*
X200591752Y-115875405D02*
X200718752Y-115833072D01*
X200718752Y-115772596D02*
X200712705Y-115784691D01*
X200712705Y-115784691D02*
X200700609Y-115790738D01*
X200700609Y-115790738D02*
X200591752Y-115790738D01*
X200718752Y-115706072D02*
X200712705Y-115718167D01*
X200712705Y-115718167D02*
X200700609Y-115724214D01*
X200700609Y-115724214D02*
X200591752Y-115724214D01*
X200718752Y-115560928D02*
X200634085Y-115560928D01*
X200658276Y-115560928D02*
X200646181Y-115554881D01*
X200646181Y-115554881D02*
X200640133Y-115548833D01*
X200640133Y-115548833D02*
X200634085Y-115536738D01*
X200634085Y-115536738D02*
X200634085Y-115524643D01*
X200718752Y-115482309D02*
X200634085Y-115482309D01*
X200591752Y-115482309D02*
X200597800Y-115488357D01*
X200597800Y-115488357D02*
X200603847Y-115482309D01*
X200603847Y-115482309D02*
X200597800Y-115476262D01*
X200597800Y-115476262D02*
X200591752Y-115482309D01*
X200591752Y-115482309D02*
X200603847Y-115482309D01*
X200634085Y-115367405D02*
X200736895Y-115367405D01*
X200736895Y-115367405D02*
X200748990Y-115373452D01*
X200748990Y-115373452D02*
X200755038Y-115379500D01*
X200755038Y-115379500D02*
X200761085Y-115391595D01*
X200761085Y-115391595D02*
X200761085Y-115409738D01*
X200761085Y-115409738D02*
X200755038Y-115421833D01*
X200712705Y-115367405D02*
X200718752Y-115379500D01*
X200718752Y-115379500D02*
X200718752Y-115403691D01*
X200718752Y-115403691D02*
X200712705Y-115415786D01*
X200712705Y-115415786D02*
X200706657Y-115421833D01*
X200706657Y-115421833D02*
X200694562Y-115427881D01*
X200694562Y-115427881D02*
X200658276Y-115427881D01*
X200658276Y-115427881D02*
X200646181Y-115421833D01*
X200646181Y-115421833D02*
X200640133Y-115415786D01*
X200640133Y-115415786D02*
X200634085Y-115403691D01*
X200634085Y-115403691D02*
X200634085Y-115379500D01*
X200634085Y-115379500D02*
X200640133Y-115367405D01*
X200718752Y-115306928D02*
X200591752Y-115306928D01*
X200718752Y-115252500D02*
X200652228Y-115252500D01*
X200652228Y-115252500D02*
X200640133Y-115258547D01*
X200640133Y-115258547D02*
X200634085Y-115270643D01*
X200634085Y-115270643D02*
X200634085Y-115288786D01*
X200634085Y-115288786D02*
X200640133Y-115300881D01*
X200640133Y-115300881D02*
X200646181Y-115306928D01*
X200634085Y-115210166D02*
X200634085Y-115161785D01*
X200591752Y-115192023D02*
X200700609Y-115192023D01*
X200700609Y-115192023D02*
X200712705Y-115185976D01*
X200712705Y-115185976D02*
X200718752Y-115173881D01*
X200718752Y-115173881D02*
X200718752Y-115161785D01*
X200712705Y-115125500D02*
X200718752Y-115113405D01*
X200718752Y-115113405D02*
X200718752Y-115089214D01*
X200718752Y-115089214D02*
X200712705Y-115077119D01*
X200712705Y-115077119D02*
X200700609Y-115071071D01*
X200700609Y-115071071D02*
X200694562Y-115071071D01*
X200694562Y-115071071D02*
X200682466Y-115077119D01*
X200682466Y-115077119D02*
X200676419Y-115089214D01*
X200676419Y-115089214D02*
X200676419Y-115107357D01*
X200676419Y-115107357D02*
X200670371Y-115119452D01*
X200670371Y-115119452D02*
X200658276Y-115125500D01*
X200658276Y-115125500D02*
X200652228Y-115125500D01*
X200652228Y-115125500D02*
X200640133Y-115119452D01*
X200640133Y-115119452D02*
X200634085Y-115107357D01*
X200634085Y-115107357D02*
X200634085Y-115089214D01*
X200634085Y-115089214D02*
X200640133Y-115077119D01*
X200718752Y-114919880D02*
X200634085Y-114919880D01*
X200658276Y-114919880D02*
X200646181Y-114913833D01*
X200646181Y-114913833D02*
X200640133Y-114907785D01*
X200640133Y-114907785D02*
X200634085Y-114895690D01*
X200634085Y-114895690D02*
X200634085Y-114883595D01*
X200712705Y-114792880D02*
X200718752Y-114804976D01*
X200718752Y-114804976D02*
X200718752Y-114829166D01*
X200718752Y-114829166D02*
X200712705Y-114841261D01*
X200712705Y-114841261D02*
X200700609Y-114847309D01*
X200700609Y-114847309D02*
X200652228Y-114847309D01*
X200652228Y-114847309D02*
X200640133Y-114841261D01*
X200640133Y-114841261D02*
X200634085Y-114829166D01*
X200634085Y-114829166D02*
X200634085Y-114804976D01*
X200634085Y-114804976D02*
X200640133Y-114792880D01*
X200640133Y-114792880D02*
X200652228Y-114786833D01*
X200652228Y-114786833D02*
X200664324Y-114786833D01*
X200664324Y-114786833D02*
X200676419Y-114847309D01*
X200712705Y-114738452D02*
X200718752Y-114726357D01*
X200718752Y-114726357D02*
X200718752Y-114702166D01*
X200718752Y-114702166D02*
X200712705Y-114690071D01*
X200712705Y-114690071D02*
X200700609Y-114684023D01*
X200700609Y-114684023D02*
X200694562Y-114684023D01*
X200694562Y-114684023D02*
X200682466Y-114690071D01*
X200682466Y-114690071D02*
X200676419Y-114702166D01*
X200676419Y-114702166D02*
X200676419Y-114720309D01*
X200676419Y-114720309D02*
X200670371Y-114732404D01*
X200670371Y-114732404D02*
X200658276Y-114738452D01*
X200658276Y-114738452D02*
X200652228Y-114738452D01*
X200652228Y-114738452D02*
X200640133Y-114732404D01*
X200640133Y-114732404D02*
X200634085Y-114720309D01*
X200634085Y-114720309D02*
X200634085Y-114702166D01*
X200634085Y-114702166D02*
X200640133Y-114690071D01*
X200712705Y-114581213D02*
X200718752Y-114593309D01*
X200718752Y-114593309D02*
X200718752Y-114617499D01*
X200718752Y-114617499D02*
X200712705Y-114629594D01*
X200712705Y-114629594D02*
X200700609Y-114635642D01*
X200700609Y-114635642D02*
X200652228Y-114635642D01*
X200652228Y-114635642D02*
X200640133Y-114629594D01*
X200640133Y-114629594D02*
X200634085Y-114617499D01*
X200634085Y-114617499D02*
X200634085Y-114593309D01*
X200634085Y-114593309D02*
X200640133Y-114581213D01*
X200640133Y-114581213D02*
X200652228Y-114575166D01*
X200652228Y-114575166D02*
X200664324Y-114575166D01*
X200664324Y-114575166D02*
X200676419Y-114635642D01*
X200718752Y-114520737D02*
X200634085Y-114520737D01*
X200658276Y-114520737D02*
X200646181Y-114514690D01*
X200646181Y-114514690D02*
X200640133Y-114508642D01*
X200640133Y-114508642D02*
X200634085Y-114496547D01*
X200634085Y-114496547D02*
X200634085Y-114484452D01*
X200634085Y-114454214D02*
X200718752Y-114423976D01*
X200718752Y-114423976D02*
X200634085Y-114393737D01*
X200712705Y-114296975D02*
X200718752Y-114309071D01*
X200718752Y-114309071D02*
X200718752Y-114333261D01*
X200718752Y-114333261D02*
X200712705Y-114345356D01*
X200712705Y-114345356D02*
X200700609Y-114351404D01*
X200700609Y-114351404D02*
X200652228Y-114351404D01*
X200652228Y-114351404D02*
X200640133Y-114345356D01*
X200640133Y-114345356D02*
X200634085Y-114333261D01*
X200634085Y-114333261D02*
X200634085Y-114309071D01*
X200634085Y-114309071D02*
X200640133Y-114296975D01*
X200640133Y-114296975D02*
X200652228Y-114290928D01*
X200652228Y-114290928D02*
X200664324Y-114290928D01*
X200664324Y-114290928D02*
X200676419Y-114351404D01*
X200718752Y-114182071D02*
X200591752Y-114182071D01*
X200712705Y-114182071D02*
X200718752Y-114194166D01*
X200718752Y-114194166D02*
X200718752Y-114218357D01*
X200718752Y-114218357D02*
X200712705Y-114230452D01*
X200712705Y-114230452D02*
X200706657Y-114236499D01*
X200706657Y-114236499D02*
X200694562Y-114242547D01*
X200694562Y-114242547D02*
X200658276Y-114242547D01*
X200658276Y-114242547D02*
X200646181Y-114236499D01*
X200646181Y-114236499D02*
X200640133Y-114230452D01*
X200640133Y-114230452D02*
X200634085Y-114218357D01*
X200634085Y-114218357D02*
X200634085Y-114194166D01*
X200634085Y-114194166D02*
X200640133Y-114182071D01*
X200706657Y-114121594D02*
X200712705Y-114115547D01*
X200712705Y-114115547D02*
X200718752Y-114121594D01*
X200718752Y-114121594D02*
X200712705Y-114127642D01*
X200712705Y-114127642D02*
X200706657Y-114121594D01*
X200706657Y-114121594D02*
X200718752Y-114121594D01*
D11*
%TO.C,H4*%
X216560000Y-116840000D02*
G75*
G03*
X216560000Y-116840000I-3200000J0D01*
G01*
%TO.C,H3*%
X173380000Y-116840000D02*
G75*
G03*
X173380000Y-116840000I-3200000J0D01*
G01*
%TO.C,H2*%
X173380000Y-66040000D02*
G75*
G03*
X173380000Y-66040000I-3200000J0D01*
G01*
%TO.C,H1*%
X216560000Y-66040000D02*
G75*
G03*
X216560000Y-66040000I-3200000J0D01*
G01*
%TD*%
M02*
